<?xml version="1.0" encoding="UTF-8"?><svg id="_图层_2" xmlns="http://www.w3.org/2000/svg" viewBox="0 0 222.74 56.14"><defs><style>.cls-1{fill:#ff7300;fill-rule:evenodd;}</style></defs><g id="_图层_1-2"><polygon id="Fill-14" class="cls-1" points="204.58 50.2 198.38 50.2 203.46 27.42 209.66 27.42 204.58 50.2"/><polygon id="Fill-16" class="cls-1" points="211.95 50.2 207.62 50.2 212.7 27.42 217.04 27.42 211.95 50.2"/><polygon id="Fill-18" class="cls-1" points="217.66 50.2 215.37 50.2 220.45 27.42 222.74 27.42 217.66 50.2"/><path class="cls-1" d="M128.18,37.11c-1.42,0-2.54.91-2.77,2.52h5.56c-.04-1.54-1.27-2.52-2.79-2.52Z"/><path class="cls-1" d="M92.01,37.28c-1.59,0-3.09,1.18-3.09,3.4s1.5,3.49,3.09,3.49,3.11-1.23,3.11-3.45-1.48-3.45-3.11-3.45Z"/><path class="cls-1" d="M159.28,37.26c-1.56,0-2.98,1.12-2.98,3.47s1.35,3.47,2.94,3.47,3.07-1.14,3.07-3.47-1.46-3.47-3.02-3.47Z"/><path class="cls-1" d="M69.43,27.44l-.97,4.38h7.56v2.39h-6.15v3.79h4.72v2.35h-4.72v6.24h-2.96v-7.73l-2.52,11.41,131.24-.05,5.07-22.77H69.43ZM84.67,37.81h-.78c-1.76,0-2.81.68-2.81,2.94v5.84h-2.96v-11.71h2.96v1.82c.74-1.21,1.97-1.99,3.59-1.99v3.11ZM98.1,46.58h-2.98v-1.71c-.7,1.02-2.03,1.9-3.89,1.9-2.96,0-5.33-2.43-5.33-6.09s2.37-6.01,5.35-6.01c1.88,0,3.17.89,3.87,1.86v-1.67h2.98v11.71ZM120.34,46.58h-2.96v-6.47c0-1.86-1.04-2.83-2.6-2.83s-2.62.97-2.62,2.83v6.47h-2.96v-6.47c0-1.86-1.04-2.83-2.6-2.83s-2.64.97-2.64,2.83v6.47h-2.96v-11.71h2.96v1.42c.74-.97,1.99-1.59,3.45-1.59,1.82,0,3.32.78,4.12,2.24.76-1.33,2.3-2.24,4.02-2.24,2.81,0,4.8,1.78,4.8,5.01v6.87ZM133.95,41.61h-8.56c.15,1.73,1.33,2.71,2.81,2.71,1.27,0,1.97-.63,2.35-1.42h3.19c-.63,2.16-2.58,3.87-5.48,3.87-3.4,0-5.88-2.37-5.88-6.05s2.41-6.05,5.88-6.05,5.77,2.3,5.77,5.79c0,.38-.02.76-.09,1.14ZM149.01,46.58h-3.19l-2.14-8.18-2.14,8.18h-3.21l-3.45-11.71h3l2.07,8.92,2.24-8.92h3.13l2.2,8.9,2.07-8.9h2.83l-3.43,11.71ZM159.24,46.77c-3.38,0-5.94-2.37-5.94-6.05s2.64-6.05,6.03-6.05,6.03,2.35,6.03,6.05-2.71,6.05-6.11,6.05ZM174.08,37.81h-.78c-1.76,0-2.81.68-2.81,2.94v5.84h-2.96v-11.71h2.96v1.82c.74-1.21,1.97-1.99,3.59-1.99v3.11ZM183,46.58l-3.97-4.99v4.99h-2.96v-15.65h2.96v8.9l3.93-4.97h3.85l-5.16,5.88,5.2,5.84h-3.85Z"/><path d="M62.27,23.5l3.82-17.12,4.48.04-3.82,17.12-4.48-.04Z"/><path d="M70.05,23.57l3.95-17.68h.43s9.47,10.09,9.47,10.09l2.11-9.43,4.13.04-3.97,17.77h-.39s-9.51-10.09-9.51-10.09l-2.08,9.34-4.13-.04Z"/><path d="M89.94,23.74l3.82-17.12,11.67.1-.78,3.48-7.22-.06-.76,3.41,6.45.05-.77,3.46-6.45-.05-1.51,6.77-4.46-.04Z"/><path d="M104.64,23.86l3.82-17.12,4.48.04-3.82,17.12-4.48-.04Z"/><path d="M112.26,23.93l3.95-17.68h.43s9.47,10.09,9.47,10.09l2.11-9.43,4.13.04-3.97,17.77h-.39s-9.11-10.09-9.11-10.09l-2.11,9.34-4.51-.04Z"/><path d="M132.07,24.1l3.82-17.12,4.48.04-3.82,17.12-4.48-.04Z"/><path d="M28.07,56.14C12.59,56.14,0,43.55,0,28.07S12.59,0,28.07,0s28.07,12.59,28.07,28.07-12.59,28.07-28.07,28.07ZM28.07,3.04C14.27,3.04,3.04,14.27,3.04,28.07s11.23,25.03,25.03,25.03,25.03-11.23,25.03-25.03S41.87,3.04,28.07,3.04Z"/><path d="M43.92,12.87c-2.32-2.53-5.23-4.52-8.5-5.75,0,.01,0,.02,0,.02l-3.9,18.05-13.93-9.9-1.94,9.26,22.46,15.72,5.82-27.4"/><path d="M23.17,34.84l-8.44-5.95-2.98,13.81c2.34,2.49,5.26,4.43,8.54,5.62l2.88-13.48Z"/></g></svg>